<?xml version="1.0" standalone="no"?>
<!DOCTYPE svg PUBLIC "-//W3C//DTD SVG 20010904//EN"
 "http://www.w3.org/TR/2001/REC-SVG-20010904/DTD/svg10.dtd">
<svg version="1.0" xmlns="http://www.w3.org/2000/svg"
 width="600.000000pt" height="200.000000pt" viewBox="0 0 600.000000 200.000000"
 preserveAspectRatio="xMidYMid meet">

<g transform="translate(0.000000,200.000000) scale(0.100000,-0.100000)"
fill="#000000" stroke="none">
<path d="M2786 919 c-4 -13 -67 -524 -66 -541 0 -5 22 -8 50 -8 57 0 53 -9 70
135 18 147 43 143 66 -11 8 -54 16 -105 19 -111 5 -14 105 -19 105 -6 0 5 -9
61 -21 126 l-21 119 21 15 c40 28 65 92 64 167 -1 60 -4 72 -27 95 -25 24 -33
26 -141 30 -90 2 -116 0 -119 -10z m166 -96 c45 -40 5 -133 -57 -133 -32 0
-34 2 -30 28 2 15 7 48 10 75 6 43 9 47 32 47 15 0 35 -7 45 -17z"/>
</g>
</svg>
